<?xml version="1.0" standalone="no"?>
<!DOCTYPE svg PUBLIC "-//W3C//DTD SVG 20010904//EN"
 "http://www.w3.org/TR/2001/REC-SVG-20010904/DTD/svg10.dtd">
<svg version="1.0" xmlns="http://www.w3.org/2000/svg"
 width="1024.000000pt" height="1024.000000pt" viewBox="0 0 1024.000000 1024.000000"
 preserveAspectRatio="xMidYMid meet">
<metadata>
Created by potrace 1.14, written by Peter Selinger 2001-2017
</metadata>
<g transform="translate(0.000000,1024.000000) scale(0.100000,-0.100000)"
fill="#000000" stroke="none">
<path d="M4573 9500 c-12 -5 -24 -18 -28 -29 -7 -24 2 -61 16 -61 5 0 9 -138
9 -344 0 -293 -2 -345 -15 -356 -24 -20 -19 -67 9 -85 21 -14 28 -14 59 -1 19
8 38 24 42 35 6 21 8 21 481 21 l475 0 26 -30 c27 -32 78 -41 101 -18 16 16
15 60 -3 84 -22 29 -22 676 1 694 24 21 14 72 -18 90 -25 13 -31 13 -55 0 -16
-9 -32 -29 -38 -48 l-9 -32 -477 0 -476 0 -6 30 c-4 19 -17 34 -36 45 -17 8
-31 15 -33 14 -2 0 -13 -4 -25 -9z m172 -327 c-7 -157 -20 -254 -44 -313 -7
-18 -10 48 -10 228 l-1 252 31 0 30 0 -6 -167z m96 155 c9 -90 -14 -321 -47
-480 -16 -76 -18 -78 -47 -78 -24 0 -28 3 -22 18 52 126 65 204 65 400 l0 152
25 0 c14 0 26 -6 26 -12z m109 -120 c0 -121 -4 -147 -38 -283 -37 -147 -39
-150 -66 -153 -21 -3 -27 0 -24 10 37 97 68 308 68 459 l0 99 30 0 30 0 0
-132z m65 80 c-11 -84 -24 -92 -25 -15 0 55 3 67 16 67 13 0 15 -8 9 -52z
m110 5 c-16 -113 -49 -223 -117 -395 -41 -104 -54 -128 -71 -128 -14 0 -18 5
-14 18 3 9 24 82 46 162 22 80 51 181 65 225 14 44 31 99 37 123 10 35 16 42
37 42 23 0 24 -2 17 -47z m100 -45 c-18 -238 -87 -519 -120 -486 -7 7 30 311
55 452 11 60 20 113 20 118 0 4 12 8 26 8 l26 0 -7 -92z m81 -6 c-4 -54 -8
-109 -11 -123 -2 -13 -8 -55 -14 -94 -23 -150 -63 -264 -93 -265 -11 0 -11 1
12 83 39 136 61 262 67 380 5 108 7 117 26 117 19 0 20 -4 13 -98z m118 46
c-17 -176 -61 -406 -93 -489 -6 -16 -19 -28 -35 -31 -32 -6 -32 -4 -2 102 13
47 29 110 35 140 10 47 30 259 31 313 0 13 8 17 35 17 l34 0 -5 -52z m86 26
c0 -45 -30 -234 -56 -354 -39 -178 -42 -187 -64 -193 -26 -7 -25 4 4 91 28 82
63 275 73 399 5 72 8 83 24 83 14 0 19 -7 19 -26z m102 -141 c2 -93 2 -221 0
-285 l-4 -118 -78 0 -79 0 20 68 c28 98 67 292 80 405 11 90 14 97 34 97 22 0
23 -2 27 -167z m-547 -315 c-4 -35 -11 -71 -16 -80 -11 -20 -44 -25 -36 -5 2
6 14 42 27 80 12 37 25 67 27 67 3 0 2 -28 -2 -62z"/>
<path d="M6066 9388 c-21 -29 -20 -51 2 -71 52 -47 126 28 76 77 -22 23 -60
20 -78 -6z"/>
<path d="M3600 9210 c11 -7 7 -8 -15 -4 -49 9 -152 -31 -213 -83 -93 -80 -136
-179 -127 -295 3 -40 12 -83 21 -95 8 -13 12 -23 9 -23 -3 0 -1 -9 5 -20 6
-11 15 -18 20 -15 6 4 7 -1 3 -11 -4 -12 -3 -15 5 -10 7 4 12 1 12 -9 0 -24
57 -78 76 -71 8 3 12 2 9 -4 -11 -17 60 -44 91 -35 16 5 33 7 38 6 30 -7 128
-7 132 1 3 4 11 5 17 2 7 -4 9 -3 4 1 -10 11 -179 13 -194 2 -7 -5 -18 -7 -25
-4 -8 4 -7 6 5 6 28 2 19 21 -13 28 -17 3 -28 8 -25 11 2 3 -10 16 -27 29 -24
17 -34 20 -41 10 -6 -8 -7 -6 -3 7 4 12 -1 25 -15 37 -12 11 -19 19 -14 19 4
0 3 6 -2 13 -6 6 -16 29 -22 50 -7 20 -16 37 -20 37 -13 0 0 142 16 173 7 15
11 33 7 40 -4 7 -4 9 0 5 4 -3 27 17 50 45 60 75 127 107 227 107 42 0 95 -7
118 -15 30 -10 40 -11 34 -2 -4 8 -1 8 10 -1 9 -8 26 -11 39 -7 l23 6 -24 -14
c-20 -12 -21 -15 -7 -20 10 -4 14 -3 11 3 -3 5 7 7 25 5 18 -2 28 0 24 6 -3 6
-8 8 -11 6 -2 -3 -16 6 -30 19 -14 13 -48 32 -77 42 -60 22 -149 38 -126 22z
m-249 -139 c-7 -5 -11 -14 -7 -20 5 -7 1 -9 -9 -5 -12 5 -13 9 -4 20 6 8 17
14 23 14 6 0 5 -4 -3 -9z m-67 -327 c3 -8 2 -12 -4 -9 -6 3 -10 10 -10 16 0
14 7 11 14 -7z"/>
<path d="M3837 9089 c-13 -8 -15 -14 -7 -30 6 -10 16 -19 23 -19 8 0 8 3 -2 9
-10 7 -11 13 -2 30 13 24 13 24 -12 10z"/>
<path d="M3860 9069 c0 -5 5 -7 12 -3 7 5 9 2 5 -9 -4 -11 -2 -14 9 -10 11 4
12 9 3 19 -14 17 -29 18 -29 3z"/>
<path d="M3896 9026 c3 -8 1 -17 -5 -21 -6 -3 -11 1 -11 9 0 9 -5 16 -11 16
-6 0 -9 -3 -7 -7 33 -65 40 -94 39 -160 -2 -82 -13 -126 -36 -149 -9 -9 -13
-19 -10 -22 6 -6 13 2 35 38 16 28 22 1 6 -31 -22 -44 -12 -49 13 -8 23 38 26
49 11 49 -5 0 -10 7 -10 15 0 8 5 15 10 15 6 0 10 5 10 11 0 5 -5 7 -12 3 -8
-5 -9 -2 -5 10 4 10 7 20 7 22 0 2 4 4 10 4 5 0 7 -6 4 -14 -3 -8 -1 -17 4
-20 5 -3 12 16 16 42 4 29 2 48 -4 50 -5 2 -11 16 -11 30 -1 27 -1 27 -9 -3
l-8 -30 -1 28 c0 15 -8 42 -17 59 -11 21 -13 33 -5 41 7 7 13 2 20 -16 6 -15
13 -27 16 -27 3 0 -2 16 -10 36 -8 20 -15 38 -15 40 0 2 -4 4 -10 4 -5 0 -7
-6 -4 -14z"/>
<path d="M2745 8895 c-20 -19 -24 -31 -19 -48 10 -35 24 -47 55 -47 46 0 75
56 47 92 -24 30 -56 31 -83 3z"/>
<path d="M7470 8900 c-38 -38 -16 -100 35 -100 53 0 76 74 33 104 -30 21 -44
20 -68 -4z"/>
<path d="M4282 8644 c-39 -27 -19 -94 29 -94 23 0 59 34 59 55 0 18 -35 55
-53 55 -7 0 -23 -7 -35 -16z"/>
<path d="M5962 8644 c-43 -30 -21 -94 32 -94 20 0 56 35 56 55 0 18 -35 55
-53 55 -7 0 -23 -7 -35 -16z"/>
<path d="M3812 8635 c-6 -11 -12 -16 -12 -11 0 5 -9 1 -20 -9 -19 -17 -18 -41
1 -29 5 3 7 10 4 15 -4 5 -2 9 4 9 5 0 14 -6 18 -14 9 -16 23 -8 57 32 27 31
12 27 -18 -5 -14 -15 -29 -24 -33 -19 -4 4 -1 11 6 15 7 5 11 15 9 22 -3 10
-8 8 -16 -6z"/>
<path d="M2427 8633 c-15 -14 -5 -30 58 -97 36 -38 64 -74 62 -80 -2 -6 3 -16
12 -23 14 -10 13 -11 -6 -6 -17 4 -23 1 -23 -11 0 -10 -5 -14 -10 -11 -6 4 -9
3 -8 -2 1 -4 -4 -19 -11 -32 -25 -45 12 -200 45 -187 8 3 11 0 8 -9 -4 -8 6
-19 23 -28 35 -18 97 -32 90 -20 -3 5 6 10 21 11 15 1 32 9 39 19 10 12 16 13
26 5 8 -7 16 -10 19 -7 3 3 49 -40 103 -95 92 -93 125 -114 140 -90 9 15 -2
30 -98 130 l-89 92 21 20 c12 10 19 23 16 28 -3 5 -1 11 5 15 15 9 12 107 -4
130 -7 11 -13 22 -12 25 4 16 -48 63 -90 81 -37 15 -63 19 -106 16 l-56 -4
-68 68 c-63 64 -90 79 -107 62z m408 -203 c10 -11 14 -20 8 -20 -5 0 -18 9
-28 20 -10 11 -14 20 -8 20 5 0 18 -9 28 -20z m-67 -2 c-2 -7 4 -13 12 -12 9
1 17 -6 18 -15 1 -9 4 -41 8 -72 5 -43 2 -62 -10 -80 -14 -23 -14 -25 4 -37
11 -7 20 -8 20 -3 0 6 -4 12 -10 16 -6 4 -5 15 2 30 6 13 15 22 21 18 6 -3 8
7 5 27 -3 19 1 45 9 59 12 24 13 21 8 -34 -3 -43 -2 -52 4 -30 7 24 9 25 10 8
1 -29 -9 -54 -20 -47 -5 3 -9 0 -9 -6 0 -6 -4 -9 -9 -5 -5 3 -12 1 -16 -4 -3
-6 6 -8 22 -5 27 5 27 5 10 -13 -10 -10 -25 -27 -33 -38 -9 -11 -12 -14 -8 -6
5 11 3 13 -9 8 -10 -4 -24 -10 -32 -13 -8 -3 -15 -2 -15 3 0 5 -26 7 -58 5
-57 -4 -58 -4 -95 37 -31 35 -37 48 -37 87 0 55 21 99 58 118 34 19 153 22
150 4z m-238 -98 c0 -13 -1 -13 -10 0 -5 8 -10 22 -10 30 0 13 1 13 10 0 5 -8
10 -22 10 -30z m113 -187 c-7 -2 -19 -2 -25 0 -7 3 -2 5 12 5 14 0 19 -2 13
-5z"/>
<path d="M7783 8578 l-65 -63 -71 0 c-85 0 -125 -19 -174 -83 -48 -63 -52
-117 -18 -228 5 -16 -12 -39 -79 -111 -85 -90 -107 -133 -68 -133 9 0 59 42
111 94 l93 93 32 -15 c17 -9 56 -16 86 -17 70 0 124 27 168 85 32 42 34 47 30
115 -3 58 -9 80 -32 115 l-28 43 68 68 c58 58 66 70 54 83 -21 26 -39 19 -107
-46z m-105 -160 c46 -25 72 -67 72 -116 0 -32 -62 -109 -90 -113 -68 -7 -122
28 -142 93 -11 36 -9 45 10 82 22 40 62 73 92 75 8 1 34 -9 58 -21z"/>
<path d="M3731 8571 c-7 -5 -10 -14 -7 -20 4 -6 2 -11 -5 -11 -7 0 -10 -2 -7
-5 3 -3 13 -2 22 1 14 5 15 9 4 16 -9 7 -7 8 9 5 15 -3 20 -1 16 9 -6 16 -13
17 -32 5z"/>
<path d="M3630 8510 c-11 -8 -7 -9 15 -4 37 8 45 14 19 14 -10 0 -26 -5 -34
-10z"/>
<path d="M1638 8203 c-109 -109 -204 -207 -212 -218 -37 -49 -3 -113 53 -102
27 6 48 -13 335 -295 293 -287 306 -302 306 -338 0 -44 24 -70 66 -70 25 0 61
31 237 208 167 168 207 213 207 235 0 35 -34 69 -65 65 -20 -2 -62 34 -227
197 -112 110 -253 249 -315 308 -99 96 -111 111 -100 128 16 26 -19 73 -59 77
-26 3 -51 -19 -226 -195z"/>
<path d="M8395 8376 c-10 -15 -14 -37 -11 -58 5 -32 -3 -41 -305 -333 -258
-250 -313 -299 -334 -297 -30 4 -75 -37 -75 -69 0 -26 362 -402 418 -435 30
-17 35 -18 60 -4 21 13 28 25 32 61 5 43 12 52 200 236 425 416 410 402 456
403 32 0 43 5 53 24 7 12 11 33 9 44 -1 12 -97 118 -212 237 -190 195 -212
215 -242 215 -24 0 -38 -7 -49 -24z m198 -294 l147 -148 -28 -26 -27 -26 -138
155 c-119 133 -136 157 -127 173 6 11 14 20 18 20 4 0 74 -67 155 -148z m-163
13 c230 -255 224 -247 205 -271 -14 -18 -16 -18 -47 16 -17 19 -75 81 -127
138 -118 128 -130 145 -111 167 7 8 16 14 19 13 4 -2 32 -30 61 -63z m-20
-135 c57 -63 118 -131 135 -151 32 -35 32 -35 14 -58 -10 -13 -22 -21 -27 -19
-5 1 -31 28 -58 58 -247 278 -226 251 -206 273 9 10 21 16 27 15 6 -2 58 -55
115 -118z m-84 -72 c55 -62 115 -132 134 -156 34 -43 34 -43 14 -63 -20 -20
-20 -20 -158 141 -114 133 -136 163 -126 175 7 8 18 15 24 15 7 0 57 -51 112
-112z m-38 -115 l132 -157 -27 -28 c-15 -16 -30 -27 -34 -26 -4 2 -47 53 -95
113 -49 61 -91 112 -94 115 -3 3 -22 26 -43 51 l-36 45 22 22 c12 12 26 22 32
21 5 0 70 -70 143 -156z m-67 -121 c54 -67 99 -126 99 -131 0 -4 -10 -16 -21
-27 -21 -18 -22 -18 -33 -1 -6 11 -60 76 -119 145 -150 175 -147 170 -117 194
l25 20 33 -38 c19 -22 79 -94 133 -162z m-121 -29 c66 -82 123 -158 126 -169
5 -20 -29 -74 -46 -74 -6 0 -160 168 -259 282 l-32 37 38 35 c21 20 41 36 45
36 4 0 62 -66 128 -147z m-222 12 c11 -14 67 -76 126 -138 117 -124 141 -155
131 -165 -7 -7 -305 294 -305 308 0 9 11 20 21 20 4 0 16 -11 27 -25z"/>
<path d="M2735 8140 c-3 -5 3 -10 15 -10 12 0 18 5 15 10 -3 6 -10 10 -15 10
-5 0 -12 -4 -15 -10z"/>
<path d="M5012 7994 c-131 -35 -263 -184 -279 -314 -10 -84 33 -124 101 -96
29 12 37 22 46 58 27 105 66 158 145 194 232 109 444 -169 278 -364 -15 -18
-59 -52 -98 -76 -95 -56 -114 -94 -122 -240 -5 -88 -9 -106 -22 -106 -37 -1
-120 -38 -173 -78 -31 -24 -85 -80 -120 -125 -161 -208 -258 -283 -638 -489
-175 -95 -227 -128 -504 -315 -349 -236 -437 -308 -478 -387 -29 -56 -20 -118
21 -160 l31 -31 448 -5 447 -5 62 -150 c107 -257 219 -619 253 -816 l11 -65
-104 -180 c-204 -352 -510 -898 -627 -1119 -29 -55 -69 -129 -89 -165 -76
-140 -74 -135 -56 -173 15 -32 21 -36 68 -39 29 -3 742 -4 1585 -4 l1534 1 19
24 c32 39 31 41 -86 256 -18 33 -81 150 -140 260 -59 110 -229 412 -377 672
l-269 472 16 88 c37 198 135 508 248 783 l64 155 446 5 c433 5 446 6 474 26
33 24 56 86 48 125 -11 49 -62 116 -131 171 -131 104 -700 477 -899 588 -355
199 -437 262 -578 437 -52 65 -105 128 -118 140 -42 38 -139 91 -180 98 l-39
7 0 87 0 87 74 52 c149 104 200 193 200 347 0 109 -24 180 -85 249 -106 120
-250 163 -407 120z m311 -1383 c89 -48 252 -135 362 -193 241 -126 325 -176
325 -189 0 -17 -363 -376 -480 -475 -133 -113 -306 -280 -345 -333 -16 -22
-32 -41 -35 -41 -3 0 -35 36 -72 79 -37 44 -172 172 -300 284 -222 195 -369
338 -451 438 -20 25 -37 49 -37 52 0 11 162 101 480 267 199 104 273 144 335
182 17 10 36 18 43 18 7 0 86 -40 175 -89z m-1105 -518 c114 -136 280 -300
492 -486 192 -169 269 -245 342 -341 29 -38 60 -73 69 -79 32 -20 65 1 120 75
60 82 174 200 294 303 44 39 82 72 85 75 3 3 68 62 144 130 136 122 295 289
366 383 19 25 39 47 44 47 6 0 202 -114 214 -125 2 -1 -26 -47 -62 -101 -222
-341 -487 -1004 -576 -1446 l-11 -58 -589 0 -589 0 -7 38 c-21 124 -97 389
-174 607 -95 271 -247 595 -383 820 l-85 140 25 20 c24 20 173 104 184 105 3
0 47 -48 97 -107z m-409 -134 c3 -11 1 -12 -11 -2 -8 7 -19 9 -23 5 -5 -4 -5
-1 -1 6 9 16 28 11 35 -9z m2711 1 c0 -11 -7 -20 -15 -20 -8 0 -15 9 -15 20 0
11 7 20 15 20 8 0 15 -9 15 -20z m-2567 -229 c32 -61 56 -115 52 -119 -9 -9
-535 -13 -535 -4 0 4 58 38 129 76 70 37 161 90 202 116 41 27 78 47 83 46 5
-1 36 -53 69 -115z m2542 81 c22 -14 105 -63 185 -109 80 -45 152 -87 160 -92
10 -7 -83 -10 -273 -10 l-287 -1 31 63 c17 34 47 90 66 125 39 70 43 71 118
24z m-680 -1557 c136 -225 489 -854 698 -1245 22 -41 43 -79 47 -85 4 -5 10
-18 13 -27 6 -17 -30 -18 -673 -18 l-680 0 0 540 0 541 -25 24 c-32 33 -68 32
-94 -1 -21 -26 -21 -36 -21 -565 l0 -539 -680 0 c-374 0 -680 4 -680 8 0 4 4
12 9 17 4 6 39 69 76 140 97 187 249 460 475 855 108 190 207 364 220 388 l24
42 624 -2 624 -3 43 -70z"/>
<path d="M2664 7905 c-19 -30 -12 -57 21 -75 34 -18 75 8 75 50 0 51 -67 69
-96 25z"/>
<path d="M7584 7905 c-21 -33 -6 -72 31 -81 50 -13 86 53 49 90 -24 24 -61 20
-80 -9z"/>
<path d="M1484 7554 c-18 -14 -18 -15 4 -4 12 6 22 13 22 15 0 8 -5 6 -26 -11z"/>
<path d="M1520 7558 c0 -6 3 -8 7 -5 3 4 13 1 22 -6 14 -11 14 -10 2 6 -15 20
-31 22 -31 5z"/>
<path d="M8755 7560 c-8 -13 5 -13 25 0 13 8 13 10 -2 10 -9 0 -20 -4 -23 -10z"/>
<path d="M8807 7549 c7 -7 15 -10 18 -7 3 3 -2 9 -12 12 -14 6 -15 5 -6 -5z"/>
<path d="M1496 7532 c5 -4 12 -11 15 -15 3 -5 9 -2 12 5 3 9 -3 14 -15 15 -11
1 -16 -1 -12 -5z"/>
<path d="M1466 7514 c-7 -18 10 -44 28 -44 6 0 3 5 -7 11 -12 7 -16 17 -12 30
8 23 0 26 -9 3z"/>
<path d="M8805 7480 c-3 -5 -1 -10 4 -10 6 0 11 5 11 10 0 6 -2 10 -4 10 -3 0
-8 -4 -11 -10z"/>
<path d="M8750 7283 c-14 -2 -45 -11 -69 -20 -44 -16 -44 -16 -20 -29 23 -13
22 -13 -11 -7 -19 3 -37 6 -40 5 -24 0 -30 -3 -25 -12 3 -5 -2 -10 -13 -10
-10 0 -46 -26 -80 -57 -50 -48 -59 -61 -51 -76 6 -9 7 -22 4 -27 -9 -15 -25
-2 -18 15 11 30 -7 14 -32 -28 -45 -78 -87 -297 -56 -297 5 0 7 19 5 43 -3 31
-2 37 5 22 14 -30 14 -108 0 -99 -7 4 -10 1 -7 -6 2 -8 10 -16 18 -18 11 -4
12 14 7 94 -4 68 -3 93 4 81 6 -10 9 -65 7 -122 -3 -96 2 -125 15 -92 4 8 6 9
6 0 1 -6 -6 -19 -15 -27 -14 -14 -14 -19 2 -46 13 -21 20 -26 26 -17 12 19 9
37 -7 37 -8 0 -15 4 -15 9 0 11 27 22 33 13 2 -4 1 0 -1 8 -3 8 -12 47 -21 87
-13 60 -13 84 -3 141 6 38 14 77 18 88 6 16 5 17 -7 7 -7 -7 -16 -13 -20 -13
-14 0 -16 35 -3 60 7 14 16 34 20 45 7 19 8 18 12 -4 2 -16 -2 -30 -13 -37
-10 -7 -15 -22 -13 -36 l4 -23 11 25 c23 53 152 190 205 216 97 49 252 76 298
52 8 -4 48 -21 89 -38 60 -25 77 -28 90 -18 13 10 14 10 4 -2 -10 -11 -9 -17
4 -32 9 -10 24 -18 34 -18 10 0 24 -12 31 -27 13 -27 48 -41 48 -20 0 7 5 4
11 -6 6 -9 14 -15 20 -12 5 4 2 17 -8 31 -12 19 -18 22 -24 12 -6 -9 -9 -6 -9
9 0 17 -4 21 -17 16 -12 -5 -15 -2 -10 10 4 10 2 14 -6 11 -7 -2 -24 8 -37 23
-18 20 -19 23 -5 13 18 -14 19 -14 6 2 -21 28 -116 75 -185 92 -58 15 -138 19
-196 9z m256 -50 c-8 -8 -36 5 -36 17 0 7 6 7 21 0 11 -7 18 -14 15 -17z
m-391 -29 c-17 -18 -31 -18 -16 -1 6 8 8 17 4 21 -4 4 0 4 10 1 14 -6 14 -9 2
-21z m400 6 c-3 -5 -10 -10 -16 -10 -5 0 -9 5 -9 10 0 6 7 10 16 10 8 0 12 -4
9 -10z m-435 -32 c0 -5 -4 -7 -9 -3 -5 3 -16 -2 -24 -10 -9 -8 -21 -15 -27
-15 -6 0 -8 -5 -4 -12 4 -7 3 -8 -5 -4 -6 4 -18 4 -25 -1 -7 -4 -1 1 13 12 13
11 31 27 39 37 15 16 42 14 42 -4z m-97 -81 c3 -7 -1 -21 -8 -31 -12 -16 -14
-16 -20 3 -10 33 16 59 28 28z"/>
<path d="M8760 7143 c-32 -5 -103 -38 -132 -60 -65 -52 -108 -101 -101 -118 4
-12 3 -16 -4 -12 -7 4 -19 -12 -30 -40 -28 -73 -22 -266 7 -248 5 3 7 -1 4 -9
-11 -29 92 -156 115 -141 7 3 10 1 9 -6 -3 -15 83 -64 127 -72 17 -4 24 -4 17
-1 -6 3 -10 10 -6 15 7 12 98 11 126 -2 31 -13 91 6 68 22 -11 8 -9 9 8 4 29
-8 76 21 131 80 65 70 84 124 85 230 1 117 -16 161 -59 156 -6 0 -19 14 -29
32 -10 17 -35 49 -54 70 -20 20 -33 37 -28 37 9 0 70 -63 93 -99 22 -32 49
-42 33 -11 -14 26 -87 101 -125 126 -64 44 -163 63 -255 47z m190 -34 c-11 -8
-8 -9 15 -5 24 5 27 4 12 -4 -9 -6 -26 -8 -37 -5 -34 11 -22 -2 23 -25 90 -47
143 -115 163 -212 13 -60 13 -84 4 -133 -7 -33 -19 -68 -27 -77 -9 -10 -11
-18 -6 -18 16 0 25 -32 13 -44 -8 -8 -9 -6 -5 7 11 27 -18 21 -49 -12 -17 -18
-25 -34 -21 -42 6 -8 4 -10 -4 -5 -7 5 -20 1 -30 -8 -24 -22 -107 -46 -162
-46 -117 0 -234 73 -284 177 -31 65 -49 213 -26 213 7 0 10 4 6 10 -3 5 -12 7
-20 3 -8 -3 -15 0 -15 5 0 6 9 9 21 7 15 -3 19 0 15 11 -3 9 -2 12 4 9 6 -3
14 5 20 19 5 14 28 45 50 69 22 24 37 47 33 51 -4 4 0 4 9 1 9 -4 18 0 21 9 4
11 1 13 -11 9 -10 -4 -14 -2 -9 3 5 5 18 10 30 10 101 7 250 23 254 28 4 3 11
6 17 6 6 0 4 -5 -4 -11z m-324 -51 c-1 -7 -6 -14 -11 -15 -5 -1 -12 -11 -17
-22 -4 -12 -12 -21 -18 -21 -12 0 8 39 30 57 19 16 19 16 16 1z m526 -142 c6
4 5 -2 -1 -15 -15 -27 -16 -27 -17 7 -1 15 1 21 3 14 3 -6 9 -9 15 -6z m-1
-265 c-7 -11 -18 -21 -25 -21 -10 0 -11 7 -2 35 9 29 13 32 24 21 11 -11 11
-18 3 -35z m-68 -66 c-3 -9 -8 -14 -10 -11 -3 3 -2 9 2 15 9 16 15 13 8 -4z
m-18 -34 c3 -5 2 -12 -3 -15 -5 -3 -9 1 -9 9 0 17 3 19 12 6z m-35 -35 c0 -2
-7 -9 -15 -16 -13 -11 -14 -10 -9 4 5 14 24 23 24 12z"/>
<path d="M8879 6893 c-14 -39 -6 -50 38 -49 32 1 39 5 41 24 8 53 -60 74 -79
25z m14 -28 c-3 -9 -8 -14 -10 -11 -3 3 -2 9 2 15 9 16 15 13 8 -4z"/>
<path d="M8705 6880 c-9 -41 0 -51 32 -39 15 5 32 8 40 5 14 -6 16 6 7 42 -5
17 -14 22 -39 22 -29 0 -34 -4 -40 -30z"/>
<path d="M8700 6740 c-9 -18 -8 -25 6 -41 25 -27 58 -24 72 6 15 33 16 32 -10
38 -13 2 -31 8 -40 11 -11 5 -20 1 -28 -14z"/>
<path d="M8885 6740 c3 -5 0 -10 -6 -12 -18 -6 -1 -45 21 -51 31 -8 60 3 62
24 0 11 1 25 2 32 1 7 -14 13 -42 14 -23 1 -40 -2 -37 -7z"/>
<path d="M9203 7052 c-8 -5 -8 -12 2 -25 12 -16 13 -16 19 -1 8 21 -5 36 -21
26z"/>
<path d="M9247 7043 c-12 -11 -8 -25 5 -17 8 5 9 2 5 -10 -4 -10 -7 -22 -7
-28 0 -6 -6 -5 -16 2 -13 12 -14 10 -2 -14 7 -18 14 -23 17 -15 2 8 11 20 19
28 13 13 14 12 7 -9 -4 -14 -12 -30 -17 -36 -5 -7 -5 -29 1 -55 32 -138 -9
-298 -104 -403 -19 -22 -35 -44 -35 -48 0 -5 -5 -6 -11 -2 -7 4 -10 1 -7 -7 9
-29 52 -21 88 16 19 20 28 33 19 30 -25 -9 -30 20 -8 46 10 12 19 28 19 36 0
7 4 13 9 13 5 0 12 8 14 18 3 11 5 7 6 -10 0 -15 5 -29 10 -32 4 -3 5 11 2 32
-4 20 -4 48 0 62 4 16 7 19 8 8 1 -10 5 -18 10 -18 4 0 6 11 3 25 -3 17 1 27
12 31 9 3 16 14 16 24 0 11 5 22 10 25 12 7 12 94 1 150 l-9 40 -1 -49 c0 -27
-4 -46 -8 -42 -10 10 -11 106 -1 100 10 -6 -6 46 -26 84 -18 34 -19 36 -29 25z
m30 -125 c-3 -8 -6 -5 -6 6 -1 11 2 17 5 13 3 -3 4 -12 1 -19z m20 -150 c-3
-7 -5 -2 -5 12 0 14 2 19 5 13 2 -7 2 -19 0 -25z m-111 -317 c-4 -5 -13 -8
-21 -4 -8 3 -15 0 -15 -7 0 -6 -5 -8 -10 -5 -7 4 -2 14 11 26 22 19 48 12 35
-10z"/>
<path d="M3827 6983 c-12 -11 -8 -23 8 -23 8 0 15 7 15 15 0 16 -12 20 -23 8z"/>
<path d="M8441 6568 c-1 -10 -6 -18 -13 -18 -6 0 -3 -8 8 -19 10 -10 22 -17
26 -14 4 2 5 -4 1 -13 -5 -12 -3 -15 6 -9 10 6 11 3 1 -14 -10 -19 -6 -27 37
-67 26 -25 60 -48 76 -51 15 -3 27 -9 27 -13 0 -10 20 -18 89 -36 42 -11 62
-12 88 -3 33 10 82 5 93 -10 3 -4 23 -2 45 5 39 12 39 13 10 14 -16 1 -39 6
-50 11 -16 7 -14 8 10 4 50 -7 110 -9 120 -3 6 3 22 8 38 12 15 3 27 11 27 17
0 6 6 7 13 3 9 -6 9 -5 0 8 -7 8 -9 19 -5 23 4 5 -2 5 -13 2 -20 -7 -20 -7 -1
8 11 8 17 15 13 15 -11 0 -101 -44 -108 -52 -3 -5 -52 -11 -110 -14 -93 -6
-113 -4 -169 15 -34 12 -77 29 -94 39 -17 9 -34 15 -38 14 -5 -1 -7 1 -6 6 1
4 -25 34 -58 66 -32 33 -58 61 -56 63 2 2 1 9 -1 16 -3 7 -6 5 -6 -5z m87
-129 c-20 -13 -47 8 -41 31 6 21 6 21 29 -1 17 -16 21 -25 12 -30z m181 -108
c19 -6 41 -11 50 -11 14 0 14 2 1 10 -13 8 -12 10 3 10 19 0 23 -15 6 -25 -17
-11 -96 15 -116 39 -18 21 -18 21 2 5 11 -9 35 -21 54 -28z"/>
<path d="M8410 6528 c0 -3 11 -18 25 -34 14 -16 25 -24 25 -18 0 6 -11 21 -25
34 -14 13 -25 21 -25 18z"/>
<path d="M9110 6390 c0 -5 7 -7 15 -4 8 4 15 8 15 10 0 2 -7 4 -15 4 -8 0 -15
-4 -15 -10z"/>
<path d="M927 6179 c-24 -14 -22 -41 13 -159 32 -105 86 -242 183 -457 l55
-123 -149 -307 c-83 -170 -158 -324 -167 -343 -10 -21 -39 -49 -74 -72 -92
-61 -135 -159 -126 -287 9 -121 72 -225 163 -267 58 -28 105 -30 166 -9 62 22
101 55 134 116 26 47 30 64 30 134 0 102 -17 134 -124 240 -45 44 -81 87 -81
96 0 16 240 523 268 567 15 22 17 19 74 -100 107 -221 189 -398 204 -440 24
-69 19 -83 -52 -159 -101 -108 -124 -179 -85 -264 53 -115 166 -160 268 -107
132 69 142 272 19 410 -19 21 -38 57 -45 85 -16 65 -88 231 -216 494 l-108
223 51 107 c95 201 182 457 162 477 -20 20 -41 -8 -103 -139 -97 -203 -147
-314 -147 -325 0 -20 -17 -10 -30 18 -75 160 -212 490 -226 546 -9 36 -35 57
-57 45z m10 -1569 c33 -28 78 -75 98 -105 36 -51 38 -58 32 -110 -7 -67 -31
-112 -77 -142 -132 -90 -284 103 -228 290 13 43 75 117 99 117 8 0 42 -23 76
-50z m671 -69 c36 -65 41 -119 18 -176 -8 -18 -23 -38 -34 -44 -26 -14 -78
-14 -104 0 -28 15 -58 87 -51 123 5 25 115 156 132 156 3 0 21 -26 39 -59z"/>
<path d="M9343 6168 c-5 -7 -38 -85 -72 -173 -73 -188 -183 -436 -191 -429 -3
3 -57 110 -120 237 -74 148 -120 232 -130 232 -10 0 -14 -8 -12 -28 5 -49 81
-264 142 -404 33 -75 60 -146 60 -158 0 -11 -36 -95 -81 -185 -171 -348 -222
-464 -234 -535 -5 -26 -20 -54 -45 -80 -100 -106 -118 -253 -43 -353 49 -66
116 -89 191 -66 70 20 117 64 142 131 19 50 20 63 10 103 -11 41 -40 89 -80
130 -8 9 -30 33 -49 55 -54 62 -54 64 183 558 31 64 60 117 64 117 10 0 282
-560 282 -579 0 -8 -40 -53 -88 -100 -108 -105 -127 -141 -126 -236 0 -55 6
-81 26 -120 48 -92 128 -145 217 -145 84 0 182 74 224 169 28 63 35 190 14
262 -19 64 -76 135 -124 155 -29 13 -42 33 -111 177 -44 89 -121 247 -172 350
-86 175 -92 190 -80 215 144 302 252 581 254 657 1 44 -2 50 -20 53 -11 2 -25
-3 -31 -10z m141 -1538 c49 -44 70 -104 64 -187 -9 -120 -70 -203 -155 -210
-65 -6 -106 21 -138 90 -27 56 -31 100 -15 143 14 37 169 194 191 194 10 0 34
-14 53 -30z m-676 -95 c63 -67 73 -90 60 -139 -15 -59 -85 -104 -131 -87 -33
13 -65 56 -73 98 -11 58 42 193 76 193 4 0 35 -29 68 -65z"/>
<path d="M7565 6120 c-7 -12 2 -30 16 -30 5 0 9 9 9 20 0 21 -15 27 -25 10z"/>
<path d="M1652 6054 c-33 -23 -30 -78 4 -101 23 -15 29 -15 52 -2 14 8 30 21
35 30 15 24 1 64 -28 77 -33 15 -36 15 -63 -4z"/>
<path d="M8576 6051 c-26 -29 -18 -82 16 -100 25 -14 29 -14 55 5 35 26 41 66
14 93 -26 26 -63 27 -85 2z"/>
<path d="M717 5259 c-27 -20 -36 -61 -19 -85 39 -58 133 -18 116 50 -12 49
-59 66 -97 35z"/>
<path d="M9511 5256 c-7 -8 -11 -32 -9 -52 2 -29 9 -42 30 -53 25 -14 29 -14
55 5 55 41 34 114 -32 114 -18 0 -38 -6 -44 -14z"/>
<path d="M7657 4294 c-8 -8 1 -24 14 -24 5 0 9 7 9 15 0 15 -12 20 -23 9z"/>
<path d="M2760 4064 c0 -9 7 -14 17 -12 25 5 28 28 4 28 -12 0 -21 -6 -21 -16z"/>
<path d="M7097 3704 c-8 -8 1 -24 14 -24 5 0 9 7 9 15 0 15 -12 20 -23 9z"/>
<path d="M2131 3294 c-12 -15 -21 -35 -21 -46 0 -25 44 -68 70 -68 27 0 70 43
70 70 0 29 -44 70 -74 70 -15 0 -33 -11 -45 -26z"/>
<path d="M8092 3297 c-12 -13 -22 -33 -22 -44 0 -31 38 -73 66 -73 28 0 74 41
74 65 0 20 -19 57 -34 67 -22 15 -63 7 -84 -15z"/>
<path d="M7963 2797 c-24 -5 -43 -14 -43 -19 0 -5 -4 -6 -10 -3 -5 3 -10 1
-10 -5 0 -6 -3 -9 -8 -6 -4 2 -18 -2 -32 -10 -15 -8 -19 -13 -10 -14 13 0 13
-1 0 -10 -8 -5 -24 -10 -34 -10 -27 0 -66 -38 -59 -59 4 -12 3 -13 -5 -3 -7
10 -16 5 -40 -22 -31 -36 -33 -60 -6 -70 9 -3 12 -12 9 -18 -4 -7 4 1 17 17
47 61 92 107 120 121 17 9 26 20 22 26 -4 7 -3 8 5 4 14 -9 53 2 46 13 -2 5 8
6 23 3 25 -5 26 -4 12 13 -14 17 -14 17 7 7 27 -15 56 -16 33 -2 -10 6 7 8 50
7 36 -1 88 2 115 7 38 6 46 5 35 -4 -12 -9 -8 -10 17 -5 27 5 32 4 27 -9 -4
-11 -14 -14 -33 -10 -14 2 1 -7 34 -21 32 -14 71 -36 85 -49 18 -17 31 -22 45
-16 17 7 16 8 -10 11 -16 2 -25 7 -20 10 6 4 21 2 35 -3 24 -9 24 -10 6 -24
-19 -14 -19 -15 9 -44 16 -16 31 -28 34 -25 2 3 -6 15 -18 26 -16 15 -20 24
-12 32 6 6 11 16 11 23 0 15 -55 35 -78 28 -14 -5 -14 -3 2 10 15 12 23 13 33
4 7 -6 16 -8 19 -5 10 9 -118 88 -134 82 -7 -2 -11 -1 -8 4 16 25 -196 39
-281 18z m332 -67 c3 -5 12 -7 19 -4 8 3 17 1 21 -5 3 -6 -1 -11 -10 -11 -9 0
-13 -5 -10 -10 4 -6 -4 -5 -19 1 -14 7 -23 15 -21 20 3 4 -5 5 -17 1 -14 -3
-19 -2 -14 6 9 14 42 16 51 2z m-564 -134 c12 7 12 5 1 -9 -11 -13 -17 -14
-27 -4 -7 7 -11 16 -8 21 3 4 9 3 13 -4 5 -8 13 -9 21 -4z"/>
<path d="M2221 2702 c-16 -24 -18 -32 -7 -23 28 23 32 2 4 -24 -14 -13 -29
-21 -33 -17 -4 4 -5 0 -3 -8 2 -8 -3 -14 -9 -12 -7 1 -12 -1 -10 -6 3 -10 -39
-63 -46 -56 -2 3 -14 -6 -25 -21 -12 -15 -26 -23 -35 -19 -8 3 -17 -2 -21 -13
-4 -9 -4 -14 0 -10 4 4 13 -1 21 -11 7 -9 12 -12 11 -7 -2 8 70 82 186 191 6
6 22 17 35 24 l24 12 -24 19 c-33 26 -41 24 -68 -19z"/>
<path d="M2310 2679 c0 -8 -16 -30 -35 -49 -19 -19 -35 -43 -35 -55 0 -19 -36
-52 -53 -47 -5 1 -6 -2 -3 -7 3 -5 -9 -20 -27 -34 -57 -45 -157 -144 -157
-155 0 -7 -6 -12 -13 -12 -20 0 -107 -93 -107 -115 0 -15 -2 -17 -9 -6 -6 9
-11 10 -15 2 -4 -6 -14 -11 -22 -11 -12 0 -14 7 -9 29 3 17 2 32 -5 36 -5 3
-7 11 -4 17 4 6 -1 6 -14 -1 -11 -6 -23 -22 -26 -37 -8 -29 1 -67 14 -59 4 3
10 -1 13 -9 3 -7 18 -16 34 -19 15 -3 42 -18 58 -34 l30 -28 156 158 c85 86
154 159 152 161 -2 2 7 10 19 19 13 8 51 42 86 75 57 55 72 79 56 95 -4 3
-115 -101 -247 -232 -142 -142 -246 -237 -254 -234 -7 3 -13 13 -13 24 0 10
100 120 238 259 l238 240 -23 22 c-17 16 -23 18 -23 7z m71 -122 c-13 -13 -26
-3 -16 12 3 6 11 8 17 5 6 -4 6 -10 -1 -17z m-563 -322 c-3 -3 -9 2 -12 12 -6
14 -5 15 5 6 7 -7 10 -15 7 -18z"/>
<path d="M8030 2661 c-80 -17 -174 -90 -232 -180 -29 -46 -37 -78 -16 -65 7 4
8 3 4 -5 -4 -6 -11 -9 -16 -6 -13 8 -16 -89 -5 -135 6 -23 14 -38 18 -34 4 5
5 1 1 -9 -3 -10 -1 -17 6 -17 6 0 9 -4 6 -8 -8 -13 26 -58 71 -97 38 -33 43
-34 67 -21 24 12 25 14 9 21 -10 5 -22 7 -26 6 -5 -1 -6 2 -3 7 3 5 -10 24
-29 42 -18 18 -39 46 -46 62 -9 22 -14 26 -21 16 -6 -9 -7 -5 -3 10 4 13 1 29
-5 37 -15 18 -9 101 11 164 15 51 96 141 125 141 15 0 16 2 5 9 -15 10 -3 13
100 26 57 7 162 -25 198 -61 13 -13 27 -24 31 -24 5 0 18 -20 30 -45 12 -25
25 -45 30 -45 11 0 13 -170 2 -184 -5 -6 -17 -32 -27 -58 -10 -27 -22 -48 -27
-48 -5 0 -21 -12 -36 -26 -45 -44 -89 -58 -184 -59 -55 -1 -85 2 -81 8 3 6 1
7 -6 3 -6 -4 -8 -12 -5 -18 5 -7 -2 -9 -22 -4 -35 8 -12 -8 26 -18 19 -6 22
-5 10 3 -11 9 3 11 54 9 49 -2 71 -7 74 -17 4 -11 -2 -13 -27 -8 -20 4 -30 3
-26 -3 3 -6 15 -10 27 -10 27 0 118 33 118 42 0 5 8 8 18 8 9 0 26 7 37 16 17
13 18 16 5 24 -12 8 -10 9 9 8 18 -2 32 8 58 44 19 26 35 57 36 70 0 13 5 26
10 29 5 4 12 39 15 78 4 65 2 77 -27 136 -19 38 -39 65 -48 65 -8 0 -13 6 -10
13 7 18 -91 88 -145 104 -46 14 -83 15 -138 4z m220 -63 c0 -4 -4 -8 -9 -8 -6
0 -12 4 -15 8 -3 5 1 9 9 9 8 0 15 -4 15 -9z m137 -270 c-2 -18 -4 -4 -4 32 0
36 2 50 4 33 2 -18 2 -48 0 -65z m-30 -110 c-3 -8 -6 -5 -6 6 -1 11 2 17 5 13
3 -3 4 -12 1 -19z m-47 -72 c0 -3 -4 -8 -10 -11 -5 -3 -10 -1 -10 4 0 6 5 11
10 11 6 0 10 -2 10 -4z m-120 -76 c0 -5 -2 -10 -4 -10 -3 0 -8 5 -11 10 -3 6
-1 10 4 10 6 0 11 -4 11 -10z"/>
<path d="M8428 2643 c6 -2 12 -11 12 -19 0 -8 5 -14 10 -14 7 0 7 6 0 20 -6
11 -16 20 -23 19 -9 0 -9 -2 1 -6z"/>
<path d="M2401 2621 c-8 -5 -9 -11 -3 -15 5 -3 12 1 16 9 6 17 6 18 -13 6z"/>
<path d="M7666 2564 c-3 -9 -4 -19 -1 -24 3 -4 0 -19 -5 -32 -9 -21 -10 -20
-5 7 9 43 -9 19 -24 -33 -7 -24 -9 -52 -5 -64 3 -11 2 -18 -2 -15 -22 13 -8
-164 16 -212 4 -9 13 -27 19 -41 7 -14 9 -17 6 -7 -3 11 -1 16 6 12 5 -4 9
-14 7 -24 -4 -21 35 -71 49 -63 13 9 9 59 -7 94 -12 26 -14 26 -27 10 -14 -16
-14 -16 -9 1 3 9 1 17 -4 17 -6 0 -10 8 -10 18 0 15 -2 15 -11 2 -9 -12 -10
-12 -5 3 3 10 6 21 6 24 0 3 9 -5 21 -18 14 -16 19 -19 15 -7 -31 100 -32 191
-2 275 12 33 12 43 0 66 -17 31 -20 33 -28 11z m14 -71 c-11 -17 -11 -17 -6 0
3 10 6 24 7 30 0 9 2 9 5 0 3 -7 0 -20 -6 -30z m-33 -105 c-3 -8 -6 -5 -6 6
-1 11 2 17 5 13 3 -3 4 -12 1 -19z m8 -89 c4 -11 4 -23 1 -26 -3 -4 -6 2 -6
13 0 16 -2 17 -10 4 -8 -12 -10 -11 -10 8 0 28 16 29 25 1z m-8 -61 c-3 -8 -6
-5 -6 6 -1 11 2 17 5 13 3 -3 4 -12 1 -19z m63 -118 c5 8 7 3 7 -13 -2 -19 -5
-23 -14 -15 -7 6 -13 18 -12 27 0 12 2 12 6 2 4 -10 7 -11 13 -1z"/>
<path d="M2224 2300 l-259 -260 51 -51 51 -50 159 161 c279 283 333 344 322
358 -13 15 -38 16 -38 1 0 -12 -179 -189 -191 -189 -12 0 -12 2 6 43 8 19 44
66 80 104 56 59 96 125 83 139 -3 2 -121 -113 -264 -256z m36 -144 c0 -3 -4
-8 -10 -11 -5 -3 -10 -1 -10 4 0 6 5 11 10 11 6 0 10 -2 10 -4z m-139 -139
c-24 -23 -40 -35 -35 -27 12 22 68 78 74 73 2 -2 -15 -23 -39 -46z"/>
<path d="M8445 2524 c8 -20 15 -38 15 -41 0 -2 4 -2 9 1 17 11 13 -208 -4
-258 -9 -26 -13 -52 -9 -59 4 -6 4 -9 -1 -5 -4 4 -20 -12 -35 -35 -57 -89
-157 -155 -274 -179 -44 -10 -71 -9 -128 1 -98 18 -160 22 -153 10 4 -5 2 -9
-3 -9 -18 0 -21 13 -6 27 12 12 17 13 30 3 8 -7 17 -10 20 -7 3 3 -3 10 -14
16 -14 8 -29 7 -53 -1 l-32 -11 23 -19 c13 -10 29 -17 36 -14 7 3 16 1 19 -5
4 -5 23 -16 42 -24 38 -16 78 -11 67 7 -5 7 1 9 17 5 72 -17 95 -18 124 -3 35
18 45 20 45 6 0 -5 -12 -10 -27 -11 l-28 -1 30 -9 c16 -4 32 -5 35 0 3 4 20 8
37 9 39 1 56 10 47 24 -4 7 -2 8 5 4 14 -9 64 21 56 33 -3 5 2 12 11 15 10 4
13 2 8 -6 -5 -7 -3 -8 5 -3 7 4 11 16 8 26 -3 10 2 24 12 31 14 12 15 11 2 -4
-12 -16 -11 -18 3 -18 9 0 16 5 16 11 0 5 4 8 9 4 13 -8 51 43 44 61 -3 7 -10
11 -15 8 -6 -4 -5 -10 3 -15 10 -6 7 -8 -8 -6 -21 1 -21 2 -5 30 13 21 23 27
39 24 12 -2 20 0 17 4 -8 14 8 60 20 56 7 -3 10 11 9 42 -2 32 0 39 5 22 6
-21 9 -17 21 28 14 55 8 156 -10 167 -6 3 -8 12 -5 20 3 8 2 22 -1 31 -6 14
-9 12 -20 -12 l-14 -30 6 28 c3 16 1 27 -5 27 -7 0 -9 9 -5 23 4 15 3 18 -3 8
-7 -10 -14 -11 -31 -1 -22 11 -22 11 -6 -26z m82 -166 c-3 -8 -6 -5 -6 6 -1
11 2 17 5 13 3 -3 4 -12 1 -19z m-103 -303 c-4 -8 -11 -12 -16 -9 -6 4 -5 10
3 15 19 12 19 11 13 -6z m-457 -121 c-3 -3 -12 -4 -19 -1 -8 3 -5 6 6 6 11 1
17 -2 13 -5z m10 -20 c-3 -3 -12 -4 -19 -1 -8 3 -5 6 6 6 11 1 17 -2 13 -5z"/>
<path d="M2010 2463 c10 -21 8 -23 -13 -23 -13 0 -32 -7 -43 -15 -18 -14 -17
-14 9 -5 16 6 33 7 38 4 12 -7 49 24 49 40 0 6 -4 6 -12 -2 -9 -9 -15 -7 -25
6 -13 15 -13 15 -3 -5z"/>
<path d="M1965 2400 c-3 -5 -11 -8 -18 -6 -7 1 -9 1 -4 -1 13 -8 7 -23 -9 -23
-9 0 -12 -5 -8 -11 5 -9 -1 -10 -22 -5 -20 5 -25 4 -14 -3 12 -8 10 -13 -13
-31 -15 -12 -27 -27 -27 -35 0 -7 -5 -15 -12 -17 -9 -3 -9 -6 0 -12 7 -4 12
-2 12 3 0 6 7 11 16 11 8 0 13 4 10 8 -2 4 20 32 50 61 30 29 54 57 54 62 0
12 -7 11 -15 -1z"/>
<path d="M2596 2392 c3 -12 2 -22 -3 -20 -4 1 -95 -85 -201 -191 -159 -158
-191 -195 -181 -207 7 -9 8 -14 1 -14 -6 0 -12 6 -15 13 -5 15 -67 -46 -67
-68 0 -8 -7 -15 -16 -15 -9 0 -12 5 -8 12 4 7 3 8 -5 4 -19 -12 0 -28 26 -21
18 4 23 3 17 -7 -4 -7 -3 -9 1 -5 13 11 15 38 3 31 -6 -4 -9 -1 -6 6 2 7 16
14 31 14 32 2 114 76 84 76 -10 0 -16 -4 -12 -9 3 -5 1 -12 -4 -15 -14 -9 -25
14 -14 25 6 6 21 11 34 11 29 2 71 37 62 52 -3 6 -2 8 2 3 12 -10 86 63 78 77
-3 6 -3 8 2 4 11 -10 145 123 145 144 0 12 5 15 17 11 13 -5 15 -2 10 16 -3
13 -3 20 0 17 4 -3 15 8 25 24 20 34 23 44 9 36 -5 -4 -12 0 -15 6 -3 7 -3 3
0 -10z"/>
<path d="M2611 2353 c-7 -8 -11 -16 -8 -19 2 -2 10 2 17 11 17 20 9 27 -9 8z"/>
<path d="M3146 2224 c-35 -34 -8 -104 41 -104 45 0 71 71 37 104 -8 9 -26 16
-39 16 -13 0 -31 -7 -39 -16z"/>
<path d="M7090 2220 c-24 -24 -25 -48 -4 -78 19 -27 64 -29 87 -4 53 58 -28
137 -83 82z"/>
<path d="M8495 2170 c-3 -5 -1 -10 4 -10 6 0 11 5 11 10 0 6 -2 10 -4 10 -3 0
-8 -4 -11 -10z"/>
<path d="M8460 2110 c0 -5 5 -10 11 -10 5 0 7 5 4 10 -3 6 -8 10 -11 10 -2 0
-4 -4 -4 -10z"/>
<path d="M7744 2076 c3 -28 0 -33 -13 -29 -11 4 -10 1 4 -10 31 -24 59 -6 33
22 -7 8 1 5 17 -5 l30 -18 -34 37 c-19 20 -36 37 -37 37 -1 0 -1 -15 0 -34z"/>
<path d="M7807 2008 c2 -5 -4 -8 -13 -8 -13 0 -15 -3 -8 -10 12 -12 44 -3 44
12 0 5 5 6 10 3 6 -3 10 -2 10 3 0 6 -11 9 -24 8 -13 0 -22 -4 -19 -8z"/>
<path d="M6583 1915 c-229 -50 -393 -261 -393 -505 0 -216 131 -401 338 -481
71 -27 199 -36 285 -19 142 27 295 144 354 270 101 213 60 453 -103 610 -126
121 -296 165 -481 125z m104 -71 c-3 -3 -12 -4 -19 -1 -8 3 -5 6 6 6 11 1 17
-2 13 -5z m-82 -14 c-11 -5 -27 -9 -35 -9 -9 0 -8 4 5 9 11 5 27 9 35 9 9 0 8
-4 -5 -9z m209 -1 c-5 -8 0 -10 17 -6 13 3 31 2 39 -4 13 -8 12 -11 -4 -20
-15 -9 -16 -13 -5 -21 11 -8 11 -9 -1 -5 -8 2 -15 10 -15 18 0 7 -8 15 -17 17
-10 2 -18 -1 -18 -7 0 -6 -8 -11 -17 -11 -15 0 -16 2 -3 10 12 8 8 10 -15 11
-27 2 -28 2 -5 6 14 3 29 9 35 14 13 13 18 11 9 -2z m-289 -32 c-26 -16 -33
-42 -8 -33 14 5 15 4 7 -4 -9 -9 -17 -9 -32 -1 -10 6 -23 7 -27 3 -5 -4 -5 -2
-1 5 4 7 14 9 23 6 10 -4 14 -2 9 5 -3 6 2 15 11 21 25 15 42 13 18 -2z m394
-1 c13 -15 1 -29 -14 -18 -13 9 -17 32 -6 32 5 0 14 -6 20 -14z m-307 -7 c-15
-6 -30 -5 -40 1 -13 7 -8 9 23 9 35 0 37 -1 17 -10z m-45 -15 c-3 -3 -12 -4
-19 -1 -8 3 -5 6 6 6 11 1 17 -2 13 -5z m421 -36 c-2 -7 2 -12 9 -11 6 1 14
-4 17 -12 3 -9 0 -12 -10 -8 -7 3 -14 0 -14 -5 0 -18 20 -24 35 -12 20 16 19
6 0 -14 -14 -14 -18 -14 -34 2 -11 11 -15 21 -9 29 5 7 5 14 -2 18 -6 3 -8 11
-5 16 9 13 15 11 13 -3z m-24 -14 c3 -8 2 -12 -4 -9 -6 3 -10 10 -10 16 0 14
7 11 14 -7z m-604 -63 c-5 -11 -15 -23 -22 -27 -7 -5 -8 -2 -3 7 21 37 44 55
25 20z m480 -111 c11 -11 20 -27 20 -35 0 -21 -36 -55 -58 -55 -29 0 -62 29
-62 55 0 51 62 73 100 35z m247 -67 c-3 -10 -5 -4 -5 12 0 17 2 24 5 18 2 -7
2 -21 0 -30z m40 -15 c-3 -7 -5 -2 -5 12 0 14 2 19 5 13 2 -7 2 -19 0 -25z
m-482 -13 c31 -30 31 -37 1 -72 -21 -24 -27 -26 -52 -18 -17 6 -33 21 -38 38
-8 22 -6 31 14 52 29 31 44 31 75 0z m452 -87 c-2 -18 -4 -4 -4 32 0 36 2 50
4 33 2 -18 2 -48 0 -65z m-820 10 c-3 -8 -6 -5 -6 6 -1 11 2 17 5 13 3 -3 4
-12 1 -19z m561 -10 c30 -30 1 -98 -43 -98 -42 0 -72 55 -49 89 17 24 72 29
92 9z m-531 -130 c-3 -8 -6 -5 -6 6 -1 11 2 17 5 13 3 -3 4 -12 1 -19z m33
-58 c6 -11 8 -20 6 -20 -3 0 -10 9 -16 20 -6 11 -8 20 -6 20 3 0 10 -9 16 -20z
m91 -37 c13 -16 12 -17 -3 -4 -10 7 -18 15 -18 17 0 8 8 3 21 -13z m-43 -15
c-2 -8 5 -12 16 -10 10 2 15 -1 12 -6 -3 -6 0 -12 6 -15 7 -2 10 -7 6 -11 -8
-10 -59 35 -52 46 8 12 14 10 12 -4z m171 -74 c2 -2 -10 -2 -27 -1 -17 1 -28
4 -26 6 2 2 -4 13 -13 25 -16 18 -14 17 22 -4 22 -13 42 -25 44 -26z m-89 6
c0 -4 14 -13 30 -20 17 -7 29 -15 26 -17 -7 -7 -86 36 -86 47 0 5 7 7 15 4 8
-4 15 -10 15 -14z m245 -31 c28 0 44 -3 38 -6 -19 -7 -16 -23 5 -24 9 -1 -6
-5 -34 -9 -28 -4 -68 -4 -90 0 -30 6 -33 8 -14 10 24 2 24 3 -5 10 l-30 8 30
2 30 2 -30 9 c-26 7 -25 8 10 4 22 -3 63 -5 90 -6z"/>
<path d="M6668 993 c7 -3 16 -2 19 1 4 3 -2 6 -13 5 -11 0 -14 -3 -6 -6z"/>
<path d="M3490 1913 c-8 -2 -22 -7 -30 -9 -13 -5 -13 -6 0 -14 9 -6 10 -10 3
-10 -6 0 -15 4 -18 10 -8 12 -72 -13 -101 -41 -11 -10 -23 -17 -26 -14 -8 9
-119 -96 -112 -106 3 -5 10 -9 15 -9 6 0 8 4 4 9 -7 13 24 43 37 35 6 -4 8 -2
4 4 -3 6 -2 13 3 16 16 10 24 -34 9 -52 -9 -13 -7 -12 10 2 17 15 19 22 11 33
-7 7 -9 16 -5 20 3 3 6 2 6 -4 0 -13 48 -14 56 -1 10 16 -13 33 -28 21 -12
-10 -48 -14 -48 -6 0 2 16 11 35 19 19 8 35 19 35 24 0 6 3 9 8 9 19 -3 33 2
27 11 -3 6 1 7 10 3 12 -4 13 -8 5 -13 -30 -19 30 -18 123 1 77 15 107 18 125
10 12 -6 31 -11 41 -11 24 0 121 -39 143 -58 14 -12 21 -11 53 3 l36 18 -49
33 c-80 53 -156 74 -269 73 -54 0 -105 -3 -113 -6z m216 -20 c-16 -4 -15 -7
10 -24 37 -24 24 -24 -22 0 -28 15 -32 20 -17 24 10 3 25 5 33 5 8 0 7 -2 -4
-5z m49 -13 c3 -6 -1 -7 -9 -4 -18 7 -21 14 -7 14 6 0 13 -4 16 -10z m-202 -7
c-7 -2 -19 -2 -25 0 -7 3 -2 5 12 5 14 0 19 -2 13 -5z m311 -59 c3 -8 2 -12
-4 -9 -6 3 -10 10 -10 16 0 14 7 11 14 -7z"/>
<path d="M3361 1826 c-17 -20 3 -30 30 -15 17 9 19 13 8 20 -19 12 -25 11 -38
-5z"/>
<path d="M3883 1786 c-22 -12 -21 -13 23 -55 25 -24 48 -40 51 -37 4 3 1 6 -6
6 -7 0 -11 6 -8 14 3 8 -6 24 -21 37 -14 13 -20 16 -13 7 8 -11 9 -18 3 -18
-16 0 -23 16 -16 35 5 12 9 13 14 5 8 -13 30 -5 30 11 0 12 -30 10 -57 -5z"/>
<path d="M3555 1783 c-56 -7 -158 -51 -149 -64 3 -5 -2 -6 -10 -3 -9 3 -16 1
-16 -5 0 -6 -6 -11 -13 -11 -8 0 -23 -10 -35 -23 -24 -26 -29 -43 -9 -31 8 5
8 2 -2 -9 -16 -20 -26 -23 -15 -4 6 9 4 9 -8 -1 -28 -23 -60 -113 -65 -188 -6
-81 11 -164 33 -164 8 0 14 -4 14 -10 0 -5 -5 -10 -10 -10 -15 0 7 -40 34 -63
11 -10 14 -16 6 -12 -8 4 10 -16 40 -45 30 -28 67 -54 83 -57 15 -3 27 -9 27
-14 0 -5 5 -9 11 -9 8 0 8 5 -1 15 -15 19 -1 19 23 1 10 -8 14 -16 10 -18 -4
-3 -3 -4 3 -2 6 1 16 -2 22 -8 10 -10 139 -14 149 -4 3 3 -19 8 -48 12 -54 8
-54 8 -21 17 39 12 41 22 5 23 -79 2 -139 10 -149 19 -6 6 -33 28 -58 49 -26
22 -54 52 -63 67 -14 23 -18 25 -30 14 -7 -8 -13 -20 -13 -27 0 -10 -2 -10 -9
1 -6 9 -4 19 5 28 15 16 20 58 5 49 -5 -3 -11 0 -14 7 -8 20 13 242 23 245 6
2 3 17 -6 35 l-15 32 20 -25 c11 -14 21 -20 22 -15 1 6 3 25 5 44 2 19 7 37
10 40 4 3 5 -6 2 -21 l-5 -28 36 32 c20 18 35 36 33 41 -1 5 3 7 10 4 7 -2 24
4 38 13 14 9 44 20 67 23 43 5 78 28 65 42 -4 4 3 3 15 -4 12 -6 34 -11 50
-12 15 0 22 -3 16 -6 -17 -6 -16 -23 1 -23 21 0 97 -36 136 -65 21 -16 48 -52
68 -93 32 -64 33 -65 28 -27 -4 31 -4 35 4 18 14 -34 20 -28 15 18 -4 39 -46
109 -66 109 -12 0 -12 -17 1 -25 6 -4 8 -11 4 -16 -4 -6 -11 -6 -20 2 -7 6
-11 15 -8 20 3 5 0 9 -7 9 -7 0 -4 7 7 15 14 11 15 14 2 9 -19 -6 -78 21 -78
37 0 6 17 1 38 -10 l37 -21 -30 25 c-49 41 -168 69 -250 58z m98 -20 c-7 -2
-19 -2 -25 0 -7 3 -2 5 12 5 14 0 19 -2 13 -5z m-90 -20 c-7 -2 -21 -2 -30 0
-10 3 -4 5 12 5 17 0 24 -2 18 -5z m-118 -31 c-3 -3 -11 0 -18 7 -9 10 -8 11
6 5 10 -3 15 -9 12 -12z m335 -12 c8 -5 11 -10 5 -10 -5 0 -17 5 -25 10 -8 5
-10 10 -5 10 6 0 17 -5 25 -10z m103 -86 c-4 -10 -9 -12 -15 -6 -12 12 -1 35
12 27 5 -3 6 -13 3 -21z m-613 -284 c-16 -30 -22 -19 -7 13 6 14 13 22 15 17
2 -5 -2 -19 -8 -30z m77 -123 c19 -31 19 -33 2 -33 -10 0 -17 3 -17 6 2 23 -4
40 -12 35 -11 -7 -14 8 -3 18 9 10 9 10 30 -26z m111 -112 c3 -3 -4 -4 -16 -2
-12 2 -24 6 -28 10 -4 3 4 4 16 2 12 -2 25 -7 28 -10z m64 -14 c-1 -7 8 -10
25 -6 23 4 25 4 8 -4 l-20 -10 20 -1 c12 -1 15 -4 7 -7 -15 -6 -62 23 -62 38
0 6 6 9 13 6 6 -2 11 -10 9 -16z"/>
<path d="M3937 1773 c-11 -10 13 -32 29 -26 10 4 12 0 8 -10 -3 -10 2 -21 15
-29 12 -7 21 -20 21 -28 0 -13 1 -13 10 0 11 17 -7 43 -23 33 -6 -4 -7 -1 -2
6 4 7 -2 22 -16 37 -24 25 -31 28 -42 17z"/>
<path d="M3168 1687 c-11 -23 -13 -39 -6 -50 16 -29 25 -19 22 23 -2 24 1 38
7 35 5 -4 9 -15 9 -25 0 -27 14 -32 28 -9 7 10 8 19 3 19 -5 0 -12 -6 -14 -12
-3 -7 -6 -3 -6 10 -1 12 -6 22 -12 22 -5 0 -7 5 -4 10 3 6 2 10 -3 10 -4 0
-15 -15 -24 -33z"/>
<path d="M3247 1713 c-4 -3 -7 -11 -7 -17 0 -6 5 -5 12 2 6 6 9 14 7 17 -3 3
-9 2 -12 -2z"/>
<path d="M4353 1700 c-27 -11 -43 -40 -43 -79 0 -43 9 -60 42 -77 89 -46 170
65 99 137 -30 29 -58 35 -98 19z"/>
<path d="M5870 1693 c-35 -23 -40 -33 -40 -73 1 -52 39 -90 90 -90 33 0 80 53
80 90 0 22 -9 41 -29 61 -33 33 -65 37 -101 12z"/>
<path d="M3970 1660 c6 -11 13 -20 16 -20 2 0 0 9 -6 20 -6 11 -13 20 -16 20
-2 0 0 -9 6 -20z"/>
<path d="M5106 1639 c-33 -26 -35 -75 -6 -107 44 -47 130 -11 130 54 0 67 -69
96 -124 53z"/>
<path d="M7580 1649 c11 -8 8 -9 -15 -5 -25 5 -27 4 -12 -5 21 -12 51 -4 42
11 -3 5 -12 10 -18 10 -7 0 -6 -4 3 -11z"/>
<path d="M7617 1639 c7 -7 15 -10 18 -7 3 3 -2 9 -12 12 -14 6 -15 5 -6 -5z"/>
<path d="M2679 1623 c-13 -17 -13 -17 6 -3 11 8 22 16 24 17 2 2 0 3 -6 3 -6
0 -17 -8 -24 -17z"/>
<path d="M3137 1626 c-3 -8 -2 -18 3 -21 13 -8 20 9 11 24 -6 10 -10 9 -14 -3z"/>
<path d="M4055 1622 c0 -10 4 -23 8 -29 8 -12 -12 -53 -24 -53 -4 0 -9 12 -12
28 -3 15 -13 36 -22 47 -16 19 -16 19 -4 -5 36 -74 52 -253 29 -316 -6 -15 -8
-35 -4 -43 13 -31 22 31 23 157 1 100 4 127 17 140 15 15 16 14 10 -5 -4 -12
-3 -24 3 -27 14 -9 2 -230 -15 -279 -10 -29 -11 -38 -3 -30 7 7 14 18 16 25 1
7 10 45 18 83 11 48 14 91 10 135 -8 81 -25 150 -36 150 -5 0 -6 6 -3 14 3 8
1 16 -4 20 -5 3 -8 -3 -7 -12z"/>
<path d="M7580 1619 c-14 -4 -18 -7 -8 -8 9 -1 18 -7 20 -13 3 -9 9 -8 21 4
20 20 4 28 -33 17z"/>
<path d="M3110 1549 c-18 -73 -17 -223 3 -274 l15 -40 -3 86 c-1 47 -6 92 -10
99 -5 8 -3 11 6 8 8 -3 17 -24 21 -48 4 -23 10 -45 13 -48 9 -10 5 133 -5 148
-8 12 -10 11 -10 -7 0 -23 -14 -31 -24 -14 -3 5 -1 34 5 65 14 76 7 92 -11 25z"/>
<path d="M3176 1587 c3 -10 9 -15 12 -12 3 3 0 11 -7 18 -10 9 -11 8 -5 -6z"/>
<path d="M7507 1593 c-4 -3 -7 -18 -7 -32 1 -30 25 -67 34 -52 3 5 1 11 -6 13
-7 3 -12 20 -11 41 1 39 0 41 -10 30z"/>
<path d="M3930 1573 c0 -4 5 -15 10 -23 8 -13 10 -13 10 2 0 9 -4 20 -10 23
-5 3 -10 3 -10 -2z"/>
<path d="M2676 1517 c3 -10 9 -15 12 -12 3 3 0 11 -7 18 -10 9 -11 8 -5 -6z"/>
<path d="M7590 1523 c0 -5 -12 -14 -27 -20 l-28 -12 30 5 c24 5 27 3 15 -6
-13 -10 -13 -11 0 -7 8 2 14 10 12 17 -2 8 5 9 20 5 13 -4 21 -6 18 -3 -28 23
-40 29 -40 21z"/>
<path d="M3161 1504 c0 -11 3 -14 6 -6 3 7 2 16 -1 19 -3 4 -6 -2 -5 -13z"/>
<path d="M3915 1460 c-4 -17 -5 -34 -2 -36 2 -3 7 10 11 27 8 42 0 50 -9 9z"/>
<path d="M3945 1470 c-10 -16 4 -47 21 -47 9 0 13 6 9 14 -3 8 -5 21 -5 29 0
16 -16 19 -25 4z"/>
<path d="M4063 1395 c0 -33 2 -45 4 -27 2 18 2 45 0 60 -2 15 -4 0 -4 -33z"/>
<path d="M4061 1314 c0 -11 3 -14 6 -6 3 7 2 16 -1 19 -3 4 -6 -2 -5 -13z"/>
<path d="M3896 1305 c-3 -9 -6 -22 -5 -28 0 -7 5 -1 10 12 5 13 8 26 5 28 -2
2 -6 -3 -10 -12z"/>
<path d="M3936 1287 c-9 -17 -14 -24 -12 -14 3 9 2 17 -3 17 -5 0 -11 -9 -14
-20 -3 -11 -1 -18 4 -14 19 11 8 -14 -16 -36 -28 -26 -23 -50 5 -25 19 17 65
114 57 121 -2 2 -11 -11 -21 -29z"/>
<path d="M3160 1283 c0 -4 5 -15 10 -23 8 -13 10 -13 10 2 0 9 -4 20 -10 23
-5 3 -10 3 -10 -2z"/>
<path d="M3144 1195 c47 -113 160 -215 286 -260 79 -28 193 -41 230 -26 20 8
9 10 -57 10 -47 1 -85 6 -88 12 -4 6 -14 8 -22 5 -22 -9 -63 4 -63 20 0 8 -5
14 -11 14 -5 0 -7 -4 -4 -10 11 -17 -11 -11 -41 12 -15 12 -34 23 -42 24 -22
4 -26 13 -8 20 11 4 26 -2 42 -17 13 -13 37 -23 52 -24 15 0 26 -5 25 -11 -2
-8 34 -12 121 -11 127 0 151 -5 142 -30 -5 -12 -1 -14 21 -8 15 3 30 10 33 13
3 4 11 8 18 10 45 9 145 72 114 72 -5 0 -15 -6 -21 -13 -6 -8 -28 -22 -50 -31
-36 -17 -41 -17 -67 -2 -21 12 -23 15 -7 11 23 -6 90 22 95 40 2 6 14 9 28 7
20 -2 22 -1 10 9 -12 9 -11 10 8 6 19 -5 21 -3 11 9 -11 14 -2 19 24 15 4 -1
12 11 17 25 8 19 15 24 28 19 13 -5 14 -3 6 5 -9 9 -5 23 13 56 14 24 22 44
19 44 -3 0 -13 -15 -22 -32 -24 -46 -111 -128 -170 -159 -27 -15 -75 -32 -106
-39 -70 -16 -198 -9 -258 15 -25 9 -53 17 -62 18 -9 1 -14 5 -12 9 3 4 -5 12
-17 19 -12 6 -42 29 -66 52 -24 22 -46 37 -50 33 -3 -3 -15 2 -26 11 -11 10
-17 13 -14 6 4 -6 3 -14 -3 -18 -5 -3 -10 -1 -10 5 0 6 -8 23 -17 37 -10 15
-18 33 -18 41 0 9 -6 17 -13 20 -10 3 -10 -4 2 -33z m101 -78 c15 5 38 -30 28
-41 -4 -3 3 -15 14 -26 12 -10 24 -16 27 -12 4 3 -4 12 -16 19 -16 9 -18 12
-7 13 9 0 24 -9 33 -19 17 -18 16 -20 -6 -27 -24 -7 -35 -4 -30 9 1 4 -1 7 -5
7 -5 0 -14 4 -22 9 -13 8 -13 12 0 28 13 17 13 17 -4 4 -18 -15 -27 -12 -31
11 -1 7 -5 20 -10 28 -7 12 -6 12 4 3 7 -6 18 -9 25 -6z"/>
<path d="M3855 1214 c-11 -8 -19 -22 -17 -31 2 -8 -1 -12 -6 -9 -13 8 -35 -20
-27 -34 11 -18 -15 -41 -39 -35 -16 5 -18 4 -6 -4 23 -16 -13 -25 -47 -13 -26
10 -26 10 -5 11 13 1 21 5 17 10 -3 6 -17 6 -36 -1 l-31 -11 29 -19 c27 -19
28 -19 3 -14 -23 6 -24 5 -4 -5 17 -9 30 -6 63 11 49 25 104 74 94 84 -4 4 0
4 9 1 20 -8 33 12 19 29 -7 9 -7 16 1 24 18 18 5 22 -17 6z m-25 -64 c0 -5 -4
-10 -10 -10 -5 0 -10 5 -10 10 0 6 5 10 10 10 6 0 10 -4 10 -10z"/>
<path d="M3210 1190 c6 -11 13 -20 16 -20 2 0 0 9 -6 20 -6 11 -13 20 -16 20
-2 0 0 -9 6 -20z"/>
<path d="M3767 1135 c-16 -12 -16 -13 -1 -19 21 -8 36 5 26 21 -5 8 -12 8 -25
-2z"/>
<path d="M3985 1120 c3 -5 8 -10 11 -10 2 0 4 5 4 10 0 6 -5 10 -11 10 -5 0
-7 -4 -4 -10z"/>
<path d="M3960 1070 c-18 -16 -28 -30 -23 -30 5 0 22 14 38 30 16 17 26 30 23
30 -3 0 -20 -13 -38 -30z"/>
<path d="M4198 1019 c-21 -12 -24 -69 -6 -87 21 -21 66 -14 83 12 34 51 -23
107 -77 75z"/>
<path d="M6046 1014 c-9 -8 -16 -28 -16 -44 0 -53 73 -68 97 -21 26 54 -40
107 -81 65z"/>
</g>
</svg>
